<?xml version="1.0" encoding="utf-8"?><svg width="44" height="44" viewBox="0 0 44 44" xmlns="http://www.w3.org/2000/svg" xmlns:xlink="http://www.w3.org/1999/xlink"><svg width="24" height="24" fill="#fff" viewBox="0 0 24 24" id="chevron-right" xmlns="http://www.w3.org/2000/svg"><path d="M10 6L8.59 7.41 13.17 12l-4.58 4.59L10 18l6-6z"/><path d="M0 0h24v24H0z" fill="none"/></svg><svg width="20" height="24" viewBox="0 0 20 24" id="notifications-none" x="24" xmlns="http://www.w3.org/2000/svg"><path fill="#212121" fill-rule="evenodd" d="M10 23.53a2.36 2.36 0 0 0 2.353-2.354H7.647A2.36 2.36 0 0 0 10 23.53zm7.647-7.06V10c0-3.647-2.47-6.588-5.882-7.412v-.823C11.765.824 10.94 0 10 0S8.235.824 8.235 1.765v.823C4.824 3.412 2.353 6.353 2.353 10v6.47L0 18.825V20h20v-1.176l-2.353-2.353zm-2.353 1.177H4.706V10A5.272 5.272 0 0 1 10 4.706 5.272 5.272 0 0 1 15.294 10v7.647z"/></svg><svg width="20" height="20" viewBox="0 0 20 20" id="person" y="24" xmlns="http://www.w3.org/2000/svg"><path fill="#212121" fill-rule="evenodd" d="M10 10c2.75 0 5-2.25 5-5s-2.25-5-5-5-5 2.25-5 5 2.25 5 5 5zm0 2.5c-3.375 0-10 1.625-10 5V20h20v-2.5c0-3.375-6.625-5-10-5z"/></svg></svg>