<?xml version="1.0" encoding="utf-8"?><svg width="72" height="68" viewBox="0 0 72 68" xmlns="http://www.w3.org/2000/svg" xmlns:xlink="http://www.w3.org/1999/xlink"><svg width="24" height="24" fill="#fff" viewBox="0 0 24 24" id="ballot" xmlns="http://www.w3.org/2000/svg"><defs><path id="aa" d="M0 0h24v24H0z"/></defs><path fill-rule="evenodd" clip-rule="evenodd" d="M13 9.5h5v-2h-5v2zm0 7h5v-2h-5v2zm6 4.5H5c-1.1 0-2-.9-2-2V5c0-1.1.9-2 2-2h14c1.1 0 2 .9 2 2v14c0 1.1-.9 2-2 2zM6 11h5V6H6v5zm1-4h3v3H7V7zM6 18h5v-5H6v5zm1-4h3v3H7v-3z"/></svg><svg width="24" height="24" fill="#fff" viewBox="0 0 24 24" id="chevron-right" x="24" xmlns="http://www.w3.org/2000/svg"><path d="M10 6L8.59 7.41 13.17 12l-4.58 4.59L10 18l6-6z"/><path d="M0 0h24v24H0z" fill="none"/></svg><svg fill="#fff" width="24" height="24" viewBox="0 0 24 24" id="filter" y="24" xmlns="http://www.w3.org/2000/svg"><path d="M15 19.88c.04.3-.06.62-.29.83a.996.996 0 0 1-1.41 0L9.29 16.7a.989.989 0 0 1-.29-.83v-5.12L4.21 4.62a1 1 0 0 1 .17-1.4c.19-.14.4-.22.62-.22h14c.22 0 .43.08.62.22a1 1 0 0 1 .17 1.4L15 10.75v9.13M7.04 5L11 10.06v5.52l2 2v-7.53L16.96 5H7.04z"/></svg><svg width="24" fill="#fff" height="24" viewBox="0 0 24 24" id="label" x="24" y="24" xmlns="http://www.w3.org/2000/svg"><path fill="none" d="M0 0h24v24H0V0z"/><path d="M17.63 5.84C17.27 5.33 16.67 5 16 5L5 5.01C3.9 5.01 3 5.9 3 7v10c0 1.1.9 1.99 2 1.99L16 19c.67 0 1.27-.33 1.63-.84L22 12l-4.37-6.16zM16 17H5V7h11l3.55 5L16 17z"/></svg><svg width="24" height="24" fill="#fff" viewBox="0 0 24 24" id="new-folder" x="48" xmlns="http://www.w3.org/2000/svg"><path fill="none" d="M0 0h24v24H0V0z"/><path d="M20 6h-8l-2-2H4c-1.11 0-1.99.89-1.99 2L2 18c0 1.11.89 2 2 2h16c1.11 0 2-.89 2-2V8c0-1.11-.89-2-2-2zm-1 8h-3v3h-2v-3h-3v-2h3V9h2v3h3v2z"/></svg><svg width="20" height="24" viewBox="0 0 20 24" id="notifications-none" x="48" y="24" xmlns="http://www.w3.org/2000/svg"><path fill="#212121" fill-rule="evenodd" d="M10 23.53a2.36 2.36 0 0 0 2.353-2.354H7.647A2.36 2.36 0 0 0 10 23.53zm7.647-7.06V10c0-3.647-2.47-6.588-5.882-7.412v-.823C11.765.824 10.94 0 10 0S8.235.824 8.235 1.765v.823C4.824 3.412 2.353 6.353 2.353 10v6.47L0 18.825V20h20v-1.176l-2.353-2.353zm-2.353 1.177H4.706V10A5.272 5.272 0 0 1 10 4.706 5.272 5.272 0 0 1 15.294 10v7.647z"/></svg><svg width="20" height="20" viewBox="0 0 20 20" id="person" y="48" xmlns="http://www.w3.org/2000/svg"><path fill="#212121" fill-rule="evenodd" d="M10 10c2.75 0 5-2.25 5-5s-2.25-5-5-5-5 2.25-5 5 2.25 5 5 5zm0 2.5c-3.375 0-10 1.625-10 5V20h20v-2.5c0-3.375-6.625-5-10-5z"/></svg></svg>